<?xml version="1.0" standalone="no"?><svg xmlns="http://www.w3.org/2000/svg" viewBox="0 0 1440 320"><path fill="#0099ff" fill-opacity="1" d="M0,32L26.7,37.3C53.3,43,107,53,160,80C213.3,107,267,149,320,186.7C373.3,224,427,256,480,240C533.3,224,587,160,640,149.3C693.3,139,747,181,800,197.3C853.3,213,907,203,960,181.3C1013.3,160,1067,128,1120,144C1173.3,160,1227,224,1280,234.7C1333.3,245,1387,203,1413,181.3L1440,160L1440,320L1413.3,320C1386.7,320,1333,320,1280,320C1226.7,320,1173,320,1120,320C1066.7,320,1013,320,960,320C906.7,320,853,320,800,320C746.7,320,693,320,640,320C586.7,320,533,320,480,320C426.7,320,373,320,320,320C266.7,320,213,320,160,320C106.7,320,53,320,27,320L0,320Z"></path></svg>