<?xml version="1.0" standalone="no"?><svg xmlns="http://www.w3.org/2000/svg" viewBox="0 0 1440 320"><path fill="#0099ff" fill-opacity="1" d="M0,320L9.6,277.3C19.2,235,38,149,58,101.3C76.8,53,96,43,115,85.3C134.4,128,154,224,173,266.7C192,309,211,299,230,261.3C249.6,224,269,160,288,149.3C307.2,139,326,181,346,192C364.8,203,384,181,403,176C422.4,171,442,181,461,176C480,171,499,149,518,165.3C537.6,181,557,235,576,266.7C595.2,299,614,309,634,272C652.8,235,672,149,691,106.7C710.4,64,730,64,749,74.7C768,85,787,107,806,144C825.6,181,845,235,864,245.3C883.2,256,902,224,922,224C940.8,224,960,256,979,240C998.4,224,1018,160,1037,149.3C1056,139,1075,181,1094,181.3C1113.6,181,1133,139,1152,149.3C1171.2,160,1190,224,1210,250.7C1228.8,277,1248,267,1267,261.3C1286.4,256,1306,256,1325,240C1344,224,1363,192,1382,197.3C1401.6,203,1421,245,1430,266.7L1440,288L1440,0L1430.4,0C1420.8,0,1402,0,1382,0C1363.2,0,1344,0,1325,0C1305.6,0,1286,0,1267,0C1248,0,1229,0,1210,0C1190.4,0,1171,0,1152,0C1132.8,0,1114,0,1094,0C1075.2,0,1056,0,1037,0C1017.6,0,998,0,979,0C960,0,941,0,922,0C902.4,0,883,0,864,0C844.8,0,826,0,806,0C787.2,0,768,0,749,0C729.6,0,710,0,691,0C672,0,653,0,634,0C614.4,0,595,0,576,0C556.8,0,538,0,518,0C499.2,0,480,0,461,0C441.6,0,422,0,403,0C384,0,365,0,346,0C326.4,0,307,0,288,0C268.8,0,250,0,230,0C211.2,0,192,0,173,0C153.6,0,134,0,115,0C96,0,77,0,58,0C38.4,0,19,0,10,0L0,0Z"></path></svg>