<?xml version="1.0" standalone="no"?><svg xmlns="http://www.w3.org/2000/svg" viewBox="0 0 1440 320"><path fill="#0099ff" fill-opacity="1" d="M0,320L30,293.3C60,267,120,213,180,208C240,203,300,245,360,266.7C420,288,480,288,540,250.7C600,213,660,139,720,96C780,53,840,43,900,48C960,53,1020,75,1080,74.7C1140,75,1200,53,1260,42.7C1320,32,1380,32,1410,32L1440,32L1440,320L1410,320C1380,320,1320,320,1260,320C1200,320,1140,320,1080,320C1020,320,960,320,900,320C840,320,780,320,720,320C660,320,600,320,540,320C480,320,420,320,360,320C300,320,240,320,180,320C120,320,60,320,30,320L0,320Z"></path></svg>