<?xml version="1.0" standalone="no"?><svg xmlns="http://www.w3.org/2000/svg" viewBox="0 0 1440 320"><path fill="#0099ff" fill-opacity="1" d="M0,320L30,282.7C60,245,120,171,180,149.3C240,128,300,160,360,176C420,192,480,192,540,170.7C600,149,660,107,720,122.7C780,139,840,213,900,240C960,267,1020,245,1080,202.7C1140,160,1200,96,1260,74.7C1320,53,1380,75,1410,85.3L1440,96L1440,320L1410,320C1380,320,1320,320,1260,320C1200,320,1140,320,1080,320C1020,320,960,320,900,320C840,320,780,320,720,320C660,320,600,320,540,320C480,320,420,320,360,320C300,320,240,320,180,320C120,320,60,320,30,320L0,320Z"></path></svg>