<?xml version="1.0" standalone="no"?><svg xmlns="http://www.w3.org/2000/svg" viewBox="0 0 1440 320"><path fill="#0099ff" fill-opacity="1" d="M0,288L6.2,256C12.3,224,25,160,37,122.7C49.2,85,62,75,74,106.7C86.2,139,98,213,111,202.7C123.1,192,135,96,148,80C160,64,172,128,185,154.7C196.9,181,209,171,222,192C233.8,213,246,267,258,245.3C270.8,224,283,128,295,112C307.7,96,320,160,332,181.3C344.6,203,357,181,369,144C381.5,107,394,53,406,53.3C418.5,53,431,107,443,117.3C455.4,128,468,96,480,74.7C492.3,53,505,43,517,42.7C529.2,43,542,53,554,80C566.2,107,578,149,591,181.3C603.1,213,615,235,628,208C640,181,652,107,665,69.3C676.9,32,689,32,702,74.7C713.8,117,726,203,738,213.3C750.8,224,763,160,775,122.7C787.7,85,800,75,812,64C824.6,53,837,43,849,53.3C861.5,64,874,96,886,122.7C898.5,149,911,171,923,202.7C935.4,235,948,277,960,272C972.3,267,985,213,997,165.3C1009.2,117,1022,75,1034,85.3C1046.2,96,1058,160,1071,186.7C1083.1,213,1095,203,1108,208C1120,213,1132,235,1145,250.7C1156.9,267,1169,277,1182,277.3C1193.8,277,1206,267,1218,240C1230.8,213,1243,171,1255,165.3C1267.7,160,1280,192,1292,208C1304.6,224,1317,224,1329,234.7C1341.5,245,1354,267,1366,234.7C1378.5,203,1391,117,1403,80C1415.4,43,1428,53,1434,58.7L1440,64L1440,320L1433.8,320C1427.7,320,1415,320,1403,320C1390.8,320,1378,320,1366,320C1353.8,320,1342,320,1329,320C1316.9,320,1305,320,1292,320C1280,320,1268,320,1255,320C1243.1,320,1231,320,1218,320C1206.2,320,1194,320,1182,320C1169.2,320,1157,320,1145,320C1132.3,320,1120,320,1108,320C1095.4,320,1083,320,1071,320C1058.5,320,1046,320,1034,320C1021.5,320,1009,320,997,320C984.6,320,972,320,960,320C947.7,320,935,320,923,320C910.8,320,898,320,886,320C873.8,320,862,320,849,320C836.9,320,825,320,812,320C800,320,788,320,775,320C763.1,320,751,320,738,320C726.2,320,714,320,702,320C689.2,320,677,320,665,320C652.3,320,640,320,628,320C615.4,320,603,320,591,320C578.5,320,566,320,554,320C541.5,320,529,320,517,320C504.6,320,492,320,480,320C467.7,320,455,320,443,320C430.8,320,418,320,406,320C393.8,320,382,320,369,320C356.9,320,345,320,332,320C320,320,308,320,295,320C283.1,320,271,320,258,320C246.2,320,234,320,222,320C209.2,320,197,320,185,320C172.3,320,160,320,148,320C135.4,320,123,320,111,320C98.5,320,86,320,74,320C61.5,320,49,320,37,320C24.6,320,12,320,6,320L0,320Z"></path></svg>