<?xml version="1.0" standalone="no"?><svg xmlns="http://www.w3.org/2000/svg" viewBox="0 0 1440 320"><path fill="#0099ff" fill-opacity="1" d="M0,320L30,282.7C60,245,120,171,180,149.3C240,128,300,160,360,176C420,192,480,192,540,170.7C600,149,660,107,720,122.7C780,139,840,213,900,240C960,267,1020,245,1080,202.7C1140,160,1200,96,1260,74.7C1320,53,1380,75,1410,85.3L1440,96L1440,0L1410,0C1380,0,1320,0,1260,0C1200,0,1140,0,1080,0C1020,0,960,0,900,0C840,0,780,0,720,0C660,0,600,0,540,0C480,0,420,0,360,0C300,0,240,0,180,0C120,0,60,0,30,0L0,0Z"></path></svg>